<svg width="523" height="155" viewBox="0 0 523 155" fill="none" xmlns="http://www.w3.org/2000/svg">
<g filter="url(#filter0_d)">
<path d="M33.984 104.712C35.04 104.808 36.24 104.904 37.584 105C39.024 105 40.704 105 42.624 105C53.856 105 62.16 102.168 67.536 96.504C73.008 90.84 75.744 83.016 75.744 73.032C75.744 62.568 73.152 54.648 67.968 49.272C62.784 43.896 54.576 41.208 43.344 41.208C41.808 41.208 40.224 41.256 38.592 41.352C36.96 41.352 35.424 41.448 33.984 41.64V104.712ZM98.928 73.032C98.928 81.672 97.584 89.208 94.896 95.64C92.208 102.072 88.368 107.4 83.376 111.624C78.48 115.848 72.48 119.016 65.376 121.128C58.272 123.24 50.304 124.296 41.472 124.296C37.44 124.296 32.736 124.104 27.36 123.72C21.984 123.432 16.704 122.76 11.52 121.704V24.504C16.704 23.544 22.08 22.92 27.648 22.632C33.312 22.248 38.16 22.056 42.192 22.056C50.736 22.056 58.464 23.016 65.376 24.936C72.384 26.856 78.384 29.88 83.376 34.008C88.368 38.136 92.208 43.416 94.896 49.848C97.584 56.28 98.928 64.008 98.928 73.032ZM174.14 84.984C174.14 90.936 173.276 96.408 171.548 101.4C169.82 106.296 167.324 110.52 164.06 114.072C160.796 117.528 156.86 120.216 152.252 122.136C147.74 124.056 142.652 125.016 136.988 125.016C131.42 125.016 126.332 124.056 121.724 122.136C117.212 120.216 113.324 117.528 110.06 114.072C106.796 110.52 104.252 106.296 102.428 101.4C100.604 96.408 99.6919 90.936 99.6919 84.984C99.6919 79.032 100.604 73.608 102.428 68.712C104.348 63.816 106.94 59.64 110.204 56.184C113.564 52.728 117.5 50.04 122.012 48.12C126.62 46.2 131.612 45.24 136.988 45.24C142.46 45.24 147.452 46.2 151.964 48.12C156.572 50.04 160.508 52.728 163.772 56.184C167.036 59.64 169.58 63.816 171.404 68.712C173.228 73.608 174.14 79.032 174.14 84.984ZM152.252 84.984C152.252 78.36 150.908 73.176 148.22 69.432C145.628 65.592 141.884 63.672 136.988 63.672C132.092 63.672 128.3 65.592 125.612 69.432C122.924 73.176 121.58 78.36 121.58 84.984C121.58 91.608 122.924 96.888 125.612 100.824C128.3 104.664 132.092 106.584 136.988 106.584C141.884 106.584 145.628 104.664 148.22 100.824C150.908 96.888 152.252 91.608 152.252 84.984ZM208.041 124.44C201.801 124.344 196.713 123.672 192.777 122.424C188.937 121.176 185.865 119.448 183.561 117.24C181.353 114.936 179.817 112.2 178.953 109.032C178.185 105.768 177.801 102.12 177.801 98.088V14.712L199.257 11.256V93.768C199.257 95.688 199.401 97.416 199.689 98.952C199.977 100.488 200.505 101.784 201.273 102.84C202.137 103.896 203.337 104.76 204.873 105.432C206.409 106.104 208.473 106.536 211.065 106.728L208.041 124.44ZM206.803 85.704C206.803 78.984 207.811 73.128 209.827 68.136C211.939 63.048 214.675 58.824 218.035 55.464C221.395 52.104 225.235 49.56 229.555 47.832C233.971 46.104 238.483 45.24 243.091 45.24C253.843 45.24 262.339 48.552 268.579 55.176C274.819 61.704 277.939 71.352 277.939 84.12C277.939 85.368 277.891 86.76 277.795 88.296C277.699 89.736 277.603 91.032 277.507 92.184H228.835C229.315 96.6 231.379 100.104 235.027 102.696C238.675 105.288 243.571 106.584 249.715 106.584C253.651 106.584 257.491 106.248 261.235 105.576C265.075 104.808 268.195 103.896 270.595 102.84L273.475 120.264C272.323 120.84 270.787 121.416 268.867 121.992C266.947 122.568 264.787 123.048 262.387 123.432C260.083 123.912 257.587 124.296 254.899 124.584C252.211 124.872 249.523 125.016 246.835 125.016C240.019 125.016 234.067 124.008 228.979 121.992C223.987 119.976 219.811 117.24 216.451 113.784C213.187 110.232 210.739 106.056 209.107 101.256C207.571 96.456 206.803 91.272 206.803 85.704ZM257.203 77.496C257.107 75.672 256.771 73.896 256.195 72.168C255.715 70.44 254.899 68.904 253.747 67.56C252.691 66.216 251.299 65.112 249.571 64.248C247.939 63.384 245.875 62.952 243.379 62.952C240.979 62.952 238.915 63.384 237.187 64.248C235.459 65.016 234.019 66.072 232.867 67.416C231.715 68.76 230.803 70.344 230.131 72.168C229.555 73.896 229.123 75.672 228.835 77.496H257.203ZM280.817 28.392L302.273 24.936V47.256H328.049V65.112H302.273V91.752C302.273 96.264 303.041 99.864 304.577 102.552C306.209 105.24 309.425 106.584 314.225 106.584C316.529 106.584 318.881 106.392 321.281 106.008C323.777 105.528 326.033 104.904 328.049 104.136L331.073 120.84C328.481 121.896 325.601 122.808 322.433 123.576C319.265 124.344 315.377 124.728 310.769 124.728C304.913 124.728 300.065 123.96 296.225 122.424C292.385 120.792 289.313 118.584 287.009 115.8C284.705 112.92 283.073 109.464 282.113 105.432C281.249 101.4 280.817 96.936 280.817 92.04V28.392ZM354.017 123H332.561V47.256H354.017V123ZM356.033 25.368C356.033 29.304 354.737 32.424 352.145 34.728C349.649 36.936 346.673 38.04 343.217 38.04C339.761 38.04 336.737 36.936 334.145 34.728C331.649 32.424 330.401 29.304 330.401 25.368C330.401 21.432 331.649 18.36 334.145 16.152C336.737 13.848 339.761 12.696 343.217 12.696C346.673 12.696 349.649 13.848 352.145 16.152C354.737 18.36 356.033 21.432 356.033 25.368ZM361.226 49.848C364.874 48.792 369.578 47.832 375.338 46.968C381.098 46.008 387.146 45.528 393.482 45.528C399.914 45.528 405.242 46.392 409.466 48.12C413.786 49.752 417.194 52.104 419.69 55.176C422.186 58.248 423.962 61.896 425.018 66.12C426.074 70.344 426.602 75.048 426.602 80.232V123H405.146V82.824C405.146 75.912 404.234 71.016 402.41 68.136C400.586 65.256 397.178 63.816 392.186 63.816C390.65 63.816 389.018 63.912 387.29 64.104C385.562 64.2 384.026 64.344 382.682 64.536V123H361.226V49.848ZM462.007 108.024C464.119 108.024 466.135 107.976 468.055 107.88C469.975 107.784 471.511 107.64 472.663 107.448V91.176C471.799 90.984 470.503 90.792 468.775 90.6C467.047 90.408 465.463 90.312 464.023 90.312C462.007 90.312 460.087 90.456 458.263 90.744C456.535 90.936 454.999 91.368 453.655 92.04C452.311 92.712 451.255 93.624 450.487 94.776C449.719 95.928 449.335 97.368 449.335 99.096C449.335 102.456 450.439 104.808 452.647 106.152C454.951 107.4 458.071 108.024 462.007 108.024ZM460.279 45.24C466.615 45.24 471.895 45.96 476.119 47.4C480.343 48.84 483.703 50.904 486.199 53.592C488.791 56.28 490.615 59.544 491.671 63.384C492.727 67.224 493.255 71.496 493.255 76.2V120.84C490.183 121.512 485.911 122.28 480.439 123.144C474.967 124.104 468.343 124.584 460.567 124.584C455.671 124.584 451.207 124.152 447.175 123.288C443.239 122.424 439.831 121.032 436.951 119.112C434.071 117.096 431.863 114.504 430.327 111.336C428.791 108.168 428.023 104.28 428.023 99.672C428.023 95.256 428.887 91.512 430.615 88.44C432.439 85.368 434.839 82.92 437.815 81.096C440.791 79.272 444.199 77.976 448.039 77.208C451.879 76.344 455.863 75.912 459.991 75.912C462.775 75.912 465.223 76.056 467.335 76.344C469.543 76.536 471.319 76.824 472.663 77.208V75.192C472.663 71.544 471.559 68.616 469.351 66.408C467.143 64.2 463.303 63.096 457.831 63.096C454.183 63.096 450.583 63.384 447.031 63.96C443.479 64.44 440.407 65.16 437.815 66.12L435.079 48.84C436.327 48.456 437.863 48.072 439.687 47.688C441.607 47.208 443.671 46.824 445.879 46.536C448.087 46.152 450.391 45.864 452.791 45.672C455.287 45.384 457.783 45.24 460.279 45.24Z" fill="white"/>
</g>
<defs>
<filter id="filter0_d" x="0.52002" y="0.256104" width="521.735" height="153.76" filterUnits="userSpaceOnUse" color-interpolation-filters="sRGB">
<feFlood flood-opacity="0" result="BackgroundImageFix"/>
<feColorMatrix in="SourceAlpha" type="matrix" values="0 0 0 0 0 0 0 0 0 0 0 0 0 0 0 0 0 0 127 0"/>
<feOffset dx="9" dy="9"/>
<feGaussianBlur stdDeviation="10"/>
<feColorMatrix type="matrix" values="0 0 0 0 0 0 0 0 0 0 0 0 0 0 0 0 0 0 0.63 0"/>
<feBlend mode="normal" in2="BackgroundImageFix" result="effect1_dropShadow"/>
<feBlend mode="normal" in="SourceGraphic" in2="effect1_dropShadow" result="shape"/>
</filter>
</defs>
</svg>
