<svg width="369" height="155" viewBox="0 0 369 155" fill="none" xmlns="http://www.w3.org/2000/svg">
<g filter="url(#filter0_d)">
<path d="M78.192 103.704V123H11.52V23.208H33.984V103.704H78.192ZM142.917 120.408C139.269 121.464 134.565 122.424 128.805 123.288C123.045 124.248 116.997 124.728 110.661 124.728C104.229 124.728 98.8526 123.864 94.5326 122.136C90.3086 120.408 86.9486 118.008 84.4526 114.936C81.9566 111.768 80.1806 108.024 79.1246 103.704C78.0686 99.384 77.5406 94.632 77.5406 89.448V47.256H98.9966V86.856C98.9966 93.768 99.9086 98.76 101.733 101.832C103.557 104.904 106.965 106.44 111.957 106.44C113.493 106.44 115.125 106.392 116.853 106.296C118.581 106.104 120.117 105.912 121.461 105.72V47.256H142.917V120.408ZM171.554 74.616C173.666 72.312 175.826 69.912 178.034 67.416C180.338 64.92 182.546 62.472 184.658 60.072C186.77 57.576 188.738 55.224 190.562 53.016C192.482 50.808 194.114 48.888 195.458 47.256H220.946C215.858 53.112 210.866 58.728 205.97 64.104C201.17 69.384 195.89 74.856 190.13 80.52C193.01 83.112 195.986 86.232 199.058 89.88C202.13 93.432 205.106 97.128 207.986 100.968C210.866 104.808 213.506 108.648 215.906 112.488C218.306 116.328 220.322 119.832 221.954 123H197.33C195.794 120.504 194.018 117.768 192.002 114.792C190.082 111.72 188.018 108.696 185.81 105.72C183.602 102.648 181.25 99.72 178.754 96.936C176.354 94.152 173.954 91.8 171.554 89.88V123H150.098V14.712L171.554 11.256V74.616ZM248.066 108.024C250.178 108.024 252.194 107.976 254.114 107.88C256.034 107.784 257.57 107.64 258.722 107.448V91.176C257.858 90.984 256.562 90.792 254.834 90.6C253.106 90.408 251.522 90.312 250.082 90.312C248.066 90.312 246.146 90.456 244.322 90.744C242.594 90.936 241.058 91.368 239.714 92.04C238.37 92.712 237.314 93.624 236.546 94.776C235.778 95.928 235.394 97.368 235.394 99.096C235.394 102.456 236.498 104.808 238.706 106.152C241.01 107.4 244.13 108.024 248.066 108.024ZM246.338 45.24C252.674 45.24 257.954 45.96 262.178 47.4C266.402 48.84 269.762 50.904 272.258 53.592C274.85 56.28 276.674 59.544 277.73 63.384C278.786 67.224 279.314 71.496 279.314 76.2V120.84C276.242 121.512 271.97 122.28 266.498 123.144C261.026 124.104 254.402 124.584 246.626 124.584C241.73 124.584 237.266 124.152 233.234 123.288C229.298 122.424 225.89 121.032 223.01 119.112C220.13 117.096 217.922 114.504 216.386 111.336C214.85 108.168 214.082 104.28 214.082 99.672C214.082 95.256 214.946 91.512 216.674 88.44C218.498 85.368 220.898 82.92 223.874 81.096C226.85 79.272 230.258 77.976 234.098 77.208C237.938 76.344 241.922 75.912 246.05 75.912C248.834 75.912 251.282 76.056 253.394 76.344C255.602 76.536 257.378 76.824 258.722 77.208V75.192C258.722 71.544 257.618 68.616 255.41 66.408C253.202 64.2 249.362 63.096 243.89 63.096C240.242 63.096 236.642 63.384 233.09 63.96C229.538 64.44 226.466 65.16 223.874 66.12L221.138 48.84C222.386 48.456 223.922 48.072 225.746 47.688C227.666 47.208 229.73 46.824 231.938 46.536C234.146 46.152 236.45 45.864 238.85 45.672C241.346 45.384 243.842 45.24 246.338 45.24ZM307.5 107.592C311.436 107.592 314.22 107.208 315.852 106.44C317.484 105.672 318.3 104.184 318.3 101.976C318.3 100.248 317.244 98.76 315.132 97.512C313.02 96.168 309.804 94.68 305.484 93.048C302.124 91.8 299.052 90.504 296.268 89.16C293.58 87.816 291.276 86.232 289.356 84.408C287.436 82.488 285.948 80.232 284.892 77.64C283.836 75.048 283.308 71.928 283.308 68.28C283.308 61.176 285.948 55.56 291.228 51.432C296.508 47.304 303.756 45.24 312.972 45.24C317.58 45.24 321.996 45.672 326.22 46.536C330.444 47.304 333.804 48.168 336.3 49.128L332.556 65.832C330.06 64.968 327.324 64.2 324.348 63.528C321.468 62.856 318.204 62.52 314.556 62.52C307.836 62.52 304.476 64.392 304.476 68.136C304.476 69 304.62 69.768 304.908 70.44C305.196 71.112 305.772 71.784 306.636 72.456C307.5 73.032 308.652 73.704 310.092 74.472C311.628 75.144 313.548 75.912 315.852 76.776C320.556 78.504 324.444 80.232 327.516 81.96C330.588 83.592 332.988 85.416 334.716 87.432C336.54 89.352 337.788 91.512 338.46 93.912C339.228 96.312 339.612 99.096 339.612 102.264C339.612 109.752 336.78 115.416 331.116 119.256C325.548 123.096 317.628 125.016 307.356 125.016C300.636 125.016 295.02 124.44 290.508 123.288C286.092 122.136 283.02 121.176 281.292 120.408L284.892 102.984C288.54 104.424 292.284 105.576 296.124 106.44C299.964 107.208 303.756 107.592 307.5 107.592Z" fill="white"/>
</g>
<defs>
<filter id="filter0_d" x="0.52002" y="0.256104" width="368.092" height="153.76" filterUnits="userSpaceOnUse" color-interpolation-filters="sRGB">
<feFlood flood-opacity="0" result="BackgroundImageFix"/>
<feColorMatrix in="SourceAlpha" type="matrix" values="0 0 0 0 0 0 0 0 0 0 0 0 0 0 0 0 0 0 127 0"/>
<feOffset dx="9" dy="9"/>
<feGaussianBlur stdDeviation="10"/>
<feColorMatrix type="matrix" values="0 0 0 0 0 0 0 0 0 0 0 0 0 0 0 0 0 0 0.63 0"/>
<feBlend mode="normal" in2="BackgroundImageFix" result="effect1_dropShadow"/>
<feBlend mode="normal" in="SourceGraphic" in2="effect1_dropShadow" result="shape"/>
</filter>
</defs>
</svg>
